# xmcd
#
# Track frame offsets:
#	150
#	40300
#	70700
#
# Disc length: 1143 seconds
#
# Revision: 1
# Processed by: cddbd v1.5.1PL0 Copyright (c) Steve Scherf et al.
# Submitted via: EasyCDDAExtractor 6.5.0.1
#
DISCID=20047503
DTITLE=Plasmic Honey - Gotta Have Love
DYEAR=1900
DGENRE=
TTITLE0=Gotta Have Love(Diva Vocal Mix)
TTITLE1=Gotta Have Love(Hard Cream Dub)
TTITLE2=Gotta Have Love(Diva Radio Edit)
EXTD=
EXTT0=
EXTT1=
EXTT2=
PLAYORDER=
